<svg height="187" viewBox="0 0 288 187" width="288" xmlns="http://www.w3.org/2000/svg" xmlns:xlink="http://www.w3.org/1999/xlink"><mask id="a" fill="#fff"><path d="m.22205238.29614h16.24471432v16.70386h-16.24471432z" fill="#fff" fill-rule="evenodd"/></mask><mask id="b" fill="#fff"><path d="m.68890476.29614h16.24390474v16.70386h-16.24390474z" fill="#fff" fill-rule="evenodd"/></mask><mask id="c" fill="#fff"><path d="m.39359048.29614h16.24390472v16.70386h-16.24390472z" fill="#fff" fill-rule="evenodd"/></mask><mask id="d" fill="#fff"><path d="m0 .1518h44.62325v45.5935273h-44.62325z" fill="#fff" fill-rule="evenodd"/></mask><g fill="#ede7e7" fill-rule="evenodd"><path d="m61.644158 183.495448h-5.0627627v-9.990896h5.0215747c3.2664612 0 4.7551135 2.640302 4.7551135 5.092642 0 2.792921-2.0266181 4.898254-4.7139255 4.898254m-.0622023-12.495448h-7.5819557v15h7.644158c2.1560662 0 3.6590082-.597622 5.0257776-1.998501 1.4592322-1.476384 2.3300644-3.554407 2.3300644-5.560137 0-4.172111-3.2580555-7.441362-7.4180443-7.441362"/><path d="m8.35452857 14.32879c-3.11342857 0-5.64642857-2.5109-5.64642857-5.59725 0-3.33965 2.3662381-5.763 5.62619048-5.763 3.15552382 0 5.62780952 2.4667 5.62780952 5.6168 0 3.22065-2.463381 5.74345-5.60757143 5.74345m0-14.03265c-4.4847619 0-8.13247619 3.6635-8.13247619 8.16595 0 4.7872 3.56352381 8.53825 8.1122381 8.53825 4.48395242 0 8.13247622-3.71875 8.13247622-8.2892 0-4.71835-3.5635238-8.415-8.11223813-8.415" mask="url(#a)" transform="translate(76 170)"/><path d="m111.461333 184.386558c-2.221712 0-3.145681-.626958-4.120399-2.797004l-.080555-.178532-2.260379 1.175127.078944.171827c.47447 1.025931.942496 1.943737 1.877742 2.764314 1.119718.98067 2.655905 1.47771 4.564258 1.47771 2.477879 0 4.400732-.927026 5.560727-2.681335.856301-1.281576.918329-2.203573.918329-3.568128v-9.750537h-2.492378v9.442925c0 1.528001-.174805 1.913563-.441443 2.327623-.692775 1.07287-1.905936 1.61601-3.604846 1.61601"/><path d="m8.82057143 14.32879c-3.11342857 0-5.64642857-2.5109-5.64642857-5.59725 0-3.33965 2.36623809-5.763 5.62619047-5.763 3.15552377 0 5.62780957 2.4667 5.62780957 5.6168 0 3.22065-2.463381 5.74345-5.60757147 5.74345m0-14.03265c-4.48395238 0-8.13166667 3.6635-8.13166667 8.16595 0 4.7872 3.56271429 8.53825 8.11142857 8.53825 4.48476187 0 8.13247617-3.71875 8.13247617-8.2892 0-4.71835-3.5635238-8.415-8.11223807-8.415" mask="url(#b)" transform="translate(127 170)"/><path d="m162.083108 177.434079h-6.513832v-3.948805h6.513832c1.956209 0 2.366568 1.030577 2.366568 1.89488 0 1.324569-.83967 2.053925-2.366568 2.053925m0-6.434079h-9.083108v15h2.569276v-6.061369h5.289347l3.017539 6.061369h2.897234l-3.150206-6.201939.11701-.03454c2.070748-.608064 3.2598-2.163168 3.2598-4.264485 0-2.73348-1.929841-4.499036-4.916892-4.499036"/><path d="m182.64373 183.495448h-5.061639v-9.990896h5.020453c3.267119 0 4.754847 2.640302 4.754847 5.092642 0 2.792921-2.026505 4.898254-4.713661 4.898254m-.061359-12.495448h-7.582371v15h7.64373c2.155945 0 3.659643-.597622 5.025496-1.998501 1.459991-1.475581 2.330774-3.554407 2.330774-5.560137 0-4.172111-3.258713-7.441362-7.417629-7.441362"/><path d="m202.031445 167.49192c.550289.174332 1.234104.393413 2.094335.393413 1.749596 0 1.826474-1.79739 1.8637-2.660659l.01052-.224674h-1.84185v.213487c0 .281541-.072832.425108-.467745.425108-.386821 0-.784162-.117464-1.204162-.242386-.476648-.139839-.954914-.281542-1.463122-.281542-1.793294 0-2.023121 1.428217-2.023121 2.671846v.213487h1.85237v-.213487c0-.454941.180462-.493163.348786-.493163.203931 0 .481503.088564.803584.19018z"/><path d="m202.5 167.5005v-.001z"/><path d="m200.372671 178.700268 2.139185-4.47748 2.139185 4.47748zm.814686-7.700268-7.187357 15h2.865797l2.295855-4.77185h6.675849l.027947.059518 2.185763 4.712332h2.948789l-7.081498-15z"/><path d="m8.52525714 14.32879c-3.11342857 0-5.64642857-2.5109-5.64642857-5.59725 0-3.33965 2.3662381-5.763 5.627-5.763 3.15471433 0 5.62700003 2.4667 5.62700003 5.6168 0 3.22065-2.463381 5.74345-5.60757146 5.74345m0-14.03265c-4.48395238 0-8.13166666 3.6635-8.13166666 8.16595 0 4.7872 3.56271428 8.53825 8.11223809 8.53825 4.48395243 0 8.13166663-3.71875 8.13166663-8.2892 0-4.71835-3.5635238-8.415-8.11223806-8.415" mask="url(#c)" transform="translate(217 170)"/><path d="m66.1097297 141.262673 5.9763145-12.673649 5.8476659 12.673649zm4.0942015-17.262673-15.2039312 32h4.1894349l5.0390172-11.00796h15.3726781l.028403.059489 5.1818673 10.948471h4.1885995l-14.9499754-32z"/><path d="m131.268693 156h3.731307v-32h-3.646095l-11.978855 21.628823-.087671-.165061-11.515105-21.463762h-3.772274v32h3.69034v-24.494344l11.68389 21.794721 11.894463-21.796397z"/><path d="m173.832812 138.56305h-14.039601v-10.790951h14.039601c2.561386 0 3.479778.328446 4.089793.683703 1.430669.846251 2.284184 2.576456 2.284184 4.626728 0 3.687474-2.084497 5.48052-6.373977 5.48052m0-14.56305h-17.832812v32h3.793211v-13.620444h14.039601c2.106403 0 4.798387-.219522 6.935965-1.927105 1.9935-1.586929 3.231223-4.394638 3.231223-7.327189 0-5.884374-3.610376-9.125262-10.167188-9.125262"/><path d="m215.978986 153.288819c-7.416563 0-13.226205-5.570893-13.226205-12.682479 0-7.207209 5.901937-12.852293 13.436341-12.852293 7.444582 0 13.059745 5.470324 13.059745 12.72452 0 7.302833-5.704986 12.810252-13.269881 12.810252m.168109-29.288819c-9.455294 0-17.147095 7.449565-17.147095 16.60634 0 4.460507 1.776679 8.611885 5.002884 11.689149 3.179234 3.034397 7.402555 4.704511 11.891224 4.704511 9.751957 0 17.105892-7.138789 17.105892-16.605516 0-9.193045-7.402555-16.394484-16.852905-16.394484"/><path d="m24.4124167 41.8687818c-11.91 0-20.55333337-7.9956363-20.55333337-19.0122182 0-10.5933818 8.45249997-18.89178178 19.24249997-18.89178178 6.6633334 0 12.4 2.26069091 18.0458334 7.11327268l2.7875-2.70981814c-5.5458334-5.37530909-12.645-8.21643636-20.5366667-8.21643636-13.5575 0-23.39833333 9.59978182-23.39833333 22.8260364 0 13.1928 10.14166663 22.7674909 24.11500003 22.7674909 8.4883333 0 14.4383333-2.3936728 20.5083333-8.2549091l-2.6408333-2.9615637c-5.0341667 5.0073091-10.62 7.3399273-17.57 7.3399273" mask="url(#d)" transform="translate(0 118)"/><path d="m280.739898 138.82158-.019744-.008189c-2.345445-.971265-5.151588-1.42332-8.830588-1.42332l-6.617594-.059783c-5.823712-.061421-7.230486-.375075-9.369439-1.501119-1.787672-.988462-2.987954-3.066935-2.987954-5.172433 0-2.984221 1.892974-5.396003 5.473253-6.971646 2.977259-1.311944 6.558361-1.77874 8.916146-1.77874 5.959454 0 10.194582 1.380734 15.589682 5.090538l2.431003-3.034996c-5.61969-4.12255-11.126673-5.961892-17.842164-5.961892-6.396294 0-18.4929 2.64518-18.4929 12.656736 0 3.344556 1.637945 6.487652 4.275439 8.202515 2.61446 1.677192 5.302137 2.262735 10.651167 2.319242l9.413041.118746c5.175445.067153 10.745774 2.667292 10.745774 8.216437 0 3.465759-2.178442 6.168265-6.300041 7.816794-3.97105 1.589565-8.479306 1.761543-10.233248 1.761543-8.053983 0-12.801637-1.936796-18.763559-7.668566l-2.778172 2.720523c6.403698 6.372181 12.469277 8.85603 21.601786 8.85603 7.57601 0 20.398214-2.803236 20.398214-13.309432 0-4.704818-2.918026-9.07305-7.260102-10.868988"/><path d="m65.3963956 110c3.5431882 0 6.5164986-1.31681 8.6036044-3.809644l-1.6468569-1.845389c-2.1767861 2.223908-4.0250161 3.052605-6.7814632 3.052605-3.9165844 0-8.132375-2.314955-8.132375-7.397572 0-4.3028157 3.1779446-7.425392 7.5559751-7.425392 2.3936494 0 4.5052135.8919238 6.8352714 2.8882145l1.8523064-1.6295735c-2.5444755-2.5080087-5.5976829-3.833249-8.8384038-3.833249-5.6123579 0-9.844454 4.2766818-9.844454 9.9477323 0 5.8244817 4.3723235 10.0522677 10.3963956 10.0522677"/><path d="m87.552747 101.408922h6.5184876v-2.5394375h-6.5184876v-5.2779645h12.959265v-2.59152h-15.512012v19h16v-2.565479h-13.447253z"/><path d="m113.532832 93.5395499h8.603669c2.774173 0 3.356376 1.5541407 3.356376 2.8570986 0 1.9489765-1.22329 3.0662776-3.356376 3.0662776h-8.603669zm11.098352 16.4604501h2.862084l-3.921163-8.021886.477705-.138613c2.584252-.751868 3.95019-2.5807134 3.95019-5.2874384 0-3.3729053-2.301444-5.5520626-5.863499-5.5520626h-11.136501v19h2.532832v-7.972322h7.278369z"/><path d="m145.854281 107.060704-7.077646-16.060704h-2.776635l8.351741 19h3.169697l8.478562-19h-2.826187l-7.223786 16.278274z"/><path d="m167.552747 101.408922h6.518488v-2.5394375h-6.518488v-5.2779645h12.959265v-2.59152h-15.512012v19h16v-2.565479h-13.447253z"/><path d="m202.874151 106.851809c1.019652-1.451748 1.125849-2.393578 1.125849-4.195947v-11.655862h-2.509723v11.278145c0 1.822075-.19414 2.418212-.629712 3.066079-.969043 1.424651-2.640809 2.147241-4.968836 2.147241-2.983458 0-4.308426-.829336-5.611822-3.538226l-2.279907 1.127404c.577444 1.18324 1.160695 2.24167 2.288203 3.1835 1.382214 1.152037 3.293752 1.735857 5.679855 1.735857 3.084677 0 5.47244-1.088811 6.906093-3.148191"/><path d="m219.789674 101.127557 3.223296-7.1369876.095394.2111485 3.125392 6.9258391zm7.620602 2.658284 2.722062 6.214159h2.867662l-8.474122-19h-2.926238l-8.59964 19h2.763064l2.853437-6.277251h8.766161z"/><path d="m165.068502 52.7287718c-5.296898 5.2817548-13.030353 8.5523607-21.082269 8.5523607-16.128711 0-29.268535-13.1288859-29.268535-29.2803028 0-16.1887526 13.185437-29.28113253 29.268535-29.28113253 7.695306 0 15.102007 3.00510773 20.708244 8.63201013l1.941449-1.94228523c-5.904793-5.9255879-13.958368-9.40942207-22.649693-9.40942207-17.662133 0-31.986233 14.3319246-31.986233 32.0008297 0 17.6622676 14.314148 31.9991703 31.986233 31.9991703 8.814895 0 17.228396-3.567632 23.013767-9.3388991z"/><path d="m142.463522 53.2623266c-10.988284-.6948866-19.753448-9.7965071-19.753448-20.8982854 0-5.7166118 2.32233-10.9040597 6.076585-14.6869668 3.681501 3.0954042 8.488204 5.13166 13.676863 5.4270073zm-13.634699-39.2623266c-5.467273 4.4006753-8.828823 11.0558354-8.828823 18.3640412 0 14.0823252 11.611651 23.3923296 23.759034 23.6310687 6.035247.1189594 12.29785-1.926321 17.240966-6.8118582l-1.927146-1.912374c-3.519458 3.4752537-8.503085 5.7182526-13.899257 5.9914489v-30.1582449c6.134457-.3494943 11.720781-3.1216573 15.645346-7.2876956-.042991-.0426612-2.010647-1.8163861-2.010647-1.8163861-8.157506 8.6257831-21.852557 8.5946076-29.979473 0z"/><path d="m157 10.8616345-2.031197-1.8616345c-5.679596 5.656633-15.245363 5.6674759-20.938449.0025022l-2.030354 1.8624685c6.996627 6.8443425 17.998314 6.8501809 25-.0033362"/></g></svg>